<svg xmlns="http://www.w3.org/2000/svg" viewBox="0 0 370.5 110.6">
    <style type="text/css">
        .st0{fill:#FFFFFF;}
    </style>
    <rect x="169.7" y="7.3" class="st0" width="10.4" height="58.8"/>
    <path class="logo st0"
          d="M107.2 56v54.7H83.7V86 67.9 55.6C83.7 38.8 70.5 25.1 54 25c-13.3-0.1-24.7 8.8-28.5 21.1l-8.9 4.5 7.5 6.3c0.8 15 6 40.2 49 53.8H53.3C23.7 110.6-0.2 85.6 0 55.4 0.2 25.2 24.3 0.8 53.9 0.9 83.5 1.1 107.4 25.8 107.2 56"/>
    <path class="logo st0"
          d="M47.3 58.1c0 3.5-2.8 6.3-6.2 6.3 -3.4 0-6.2-2.9-6.2-6.4 0-3.5 2.8-6.3 6.2-6.3C44.5 51.8 47.3 54.6 47.3 58.1"/>
    <path class="st0"
          d="M271.1 47.1c0 10.5-8.9 18.9-18.3 18.9 -9.5 0-18.3-8.4-18.3-18.9V29.4h10.4v17.4c0 2.5 0.9 4.8 2.2 6.4 1.6 1.7 3.7 2.7 5.7 2.7 2 0 4.1-1 5.7-2.7 1.4-1.6 2.3-4 2.3-6.4V29.4h10.4V47.1z"/>
    <path class="st0"
          d="M310 60.7c-3.3 3.3-7.9 5.4-12.9 5.4 -10.2 0-18.4-8.4-18.4-18.9 0-10.4 8.3-18.9 18.4-18.9 5 0 9.6 2.1 12.9 5.4V7.3h9.5v57.6H310V60.7zM291.9 54c1.7 1.8 4 2.8 6.4 2.8 2.4 0 4.8-1 6.5-2.8 1.7-1.8 2.7-4.3 2.7-6.9 0-2.6-1-5-2.7-6.9 -1.7-1.8-4-2.8-6.5-2.8 -2.4 0-4.7 1-6.4 2.8 -1.7 1.9-2.7 4.3-2.7 6.9C289.3 49.7 290.2 52.2 291.9 54"/>
    <path class="st0"
          d="M366.1 47.2c0-10.4-8.6-18.8-19.3-18.8 -10.7 0-19.3 8.4-19.3 18.8 0 10.5 8.6 18.8 19.3 18.8 4 0 7.7-1.2 10.8-3.1v2.1h8.6V47.2zM353.3 54.2c-1.8 1.8-4 2.8-6.5 2.8 -2.3 0-4.7-1-6.3-2.8 -1.9-1.9-2.8-4.3-2.8-6.9 0-2.6 0.9-5 2.8-6.9 1.6-1.9 4-2.9 6.3-2.9 2.5 0 4.7 1 6.5 2.9 1.7 1.8 2.6 4.2 2.6 6.8C355.9 49.8 355 52.3 353.3 54.2"/>
    <path class="st0"
          d="M226.6 47.2c0-10.4-8.6-18.8-19.3-18.8 -10.7 0-19.3 8.4-19.3 18.8 0 10.5 8.6 18.8 19.3 18.8 4 0 7.7-1.2 10.8-3.1v2.1h8.6V47.2zM213.8 54.2c-1.8 1.8-4 2.8-6.5 2.8 -2.3 0-4.7-1-6.3-2.8 -1.9-1.9-2.7-4.3-2.7-6.9 0-2.6 0.9-5 2.7-6.9 1.6-1.9 4-2.9 6.3-2.9 2.5 0 4.7 1 6.5 2.9 1.7 1.8 2.6 4.2 2.6 6.8C216.4 49.8 215.5 52.3 213.8 54.2"/>
    <path class="st0"
          d="M161.6 47.2c0-10.4-8.6-18.8-19.3-18.8 -10.7 0-19.3 8.4-19.3 18.8 0 10.5 8.6 18.8 19.3 18.8 4 0 7.7-1.2 10.8-3.1v2.1h8.6V47.2zM148.8 54.2c-1.8 1.8-4 2.8-6.5 2.8 -2.3 0-4.7-1-6.3-2.8 -1.9-1.9-2.7-4.3-2.7-6.9 0-2.6 0.9-5 2.7-6.9 1.6-1.9 4-2.9 6.3-2.9 2.5 0 4.7 1 6.5 2.9 1.7 1.8 2.6 4.2 2.6 6.8C151.4 49.8 150.5 52.3 148.8 54.2"/>
    <path class="st0"
          d="M127.8 87.1h23.1v-2.3c0-0.7-0.5-1.3-1.2-1.3h-21.8v-2.2h21.8c1.9 0 3.4 1.6 3.4 3.5v6.6c0 1.9-1.6 3.5-3.4 3.5h-21.8v-2.2h21.8c0.7 0 1.2-0.6 1.2-1.3v-2h-23.1V87.1z"/>
    <polygon class="st0" points="133.9 103.3 127.8 98.4 129.1 96.6 135.2 101.5 "/>
    <path class="st0" d="M145.6 101.6c2.5-1.4 4.7-2.9 6.1-4.8l1.7 1.4c-1.6 2.1-4 3.8-6.8 5.3L145.6 101.6z"/>
    <path class="st0"
          d="M190.3 91.1h28.3v2.2h-19.9l-1.6 14.1h14.2c1 0 1.9-0.8 1.9-1.9l-0.6-6.5h2.2l0.6 6.5c0 2.3-1.8 4.1-4 4.1h-16.8l1.6-16.3h-5.8V91.1zM193.9 82h21v2.2h-21V82z"/>
    <path class="st0"
          d="M155 108.1L155 108.1c-3.2-0.7-6.2-2.4-8.8-4.4 -2.5-2-4.3-4.3-5.2-7.1 0.1-0.3 0.1-0.7 0.2-1 -0.8 0-1.7-0.1-2.5-0.1 -0.4 3.3-1.5 5.9-3.3 8 -2.1 2.3-5.2 3.7-9.4 4.6l0.5 2.5c0 0 2.6-0.5 4.8-1.4 2.3-0.9 4.1-2.1 5.5-3.6 1.4-1.5 2.5-3.3 3.3-5.5 0.6 1.1 1.2 2.1 2 3.1 0.8 0.9 1.7 1.8 2.6 2.5 2 1.5 5.9 4.1 9.4 4.8L155 108.1z"/>
    <path class="st0" d="M166.8 83.2l-1.6-1.4c-1.9 2.2-4.1 4.1-7 5.8l1.1 1.9C162.3 87.6 164.7 85.6 166.8 83.2"/>
    <path class="st0"
          d="M182.3 87l2.9 2.4 1.3-1.7 -7.3-6 -1.4 1.7 2.4 2c-2.2 1.3-3 1.9-5.3 2.7v-7h-0.2 -2.2v8c-3.7 1-9.4 2.8-14.6 3.2l0.2 2.2c1.1-0.1 2.2-0.2 3.2-0.3v15.4h2.2H185v-2.2h-10v-2.1h10v-2.2h-10v-2.3h10v-2.2h-10v-2.4h10V94h-10v-3.2C177.6 89.7 180 88.4 182.3 87M163.7 93.9c3.3-0.5 6.3-1.3 9-2.2V94L163.7 93.9 163.7 93.9zM163.7 96.2h9v2.4h-9V96.2zM163.7 100.8h9v2.3h-9V100.8zM163.7 105.3h9v2.1h-9V105.3z"/>
    <rect x="231.8" y="93.5" class="st0" width="2.2" height="3.7"/>
    <path class="st0"
          d="M261.7 90.5c-0.3 0.3-0.5 0.6-0.8 0.9l13.6 9.9 -1.3 1.8L259.4 93c-4.2 4.1-8.9 7.4-13.2 9.7l-1-2c4.9-2.7 10.4-6.8 14.9-11.7L261.7 90.5zM271.3 88v-1.8c0-0.7-0.6-1.3-1.3-1.3h-20.2c-0.7 0-1.3 0.6-1.3 1.3V88h-2.2v-1.8c0-1.9 1.5-3.5 3.4-3.5h8.9v-2.2h2.2v2.2h9c1.9 0 3.5 1.6 3.5 3.5V88H271.3zM254.9 88.1c-2.2 3-4.7 5.1-7 6.6l-1.2-1.9c2.2-1.4 4.4-3.3 6.4-6.1L254.9 88.1zM253.3 110.2c-1.9 0-3.5-1.6-3.5-3.5V103c0-1.9 1.6-3.5 3.5-3.5h13.3c1.9 0 3.4 1.6 3.4 3.5v3.8c0 1.9-1.5 3.5-3.4 3.5H253.3zM266.6 108c0.7 0 1.3-0.6 1.3-1.3V103c0-0.7-0.5-1.3-1.3-1.3h-13.3c-0.7 0-1.3 0.6-1.3 1.3v3.8c0 0.7 0.6 1.3 1.3 1.3H266.6zM266.2 86.6l6.8 7.2 -1.6 1.6 -6.8-7.2L266.2 86.6z"/>
    <path class="st0"
          d="M293.7 90.9c-0.3 0.5-0.5 1-0.7 1.4h9.5c0.4 0 0.7-0.1 0.9-0.4 0.3-0.3 0.4-0.6 0.4-0.9v-0.7h2.2V91c0 1-0.3 1.8-1 2.6 -0.7 0.7-1.5 1-2.4 1h-5.1l8.8 4.4 -0.9 2 -12.7-6.4h-1.1c-2.6 3.1-6.4 4.8-13.5 5.8l-0.3-2.2c5.2-0.7 8.4-1.8 10.7-3.6h-10.7v-2.2h12.8c0.5-0.7 1-1.5 1.4-2.4L293.7 90.9zM277.8 84c0-1.9 1.6-3.5 3.5-3.5h6.4c1.9 0 3.4 1.6 3.4 3.5v1.9c0 2-1.6 3.5-3.4 3.5h-6.4c-1.9 0-3.5-1.5-3.5-3.5V84zM277.8 104.1c0-2 1.6-3.5 3.5-3.5h6.4c1.9 0 3.4 1.5 3.4 3.5v2.6c0 1.9-1.6 3.5-3.4 3.5h-6.4c-1.9 0-3.5-1.6-3.5-3.5V104.1zM280 85.9c0 0.7 0.6 1.3 1.3 1.3h6.4c0.7 0 1.3-0.6 1.3-1.3V84c0-0.7-0.5-1.3-1.3-1.3h-6.4c-0.7 0-1.3 0.6-1.3 1.3V85.9zM280 106.8c0 0.7 0.6 1.3 1.3 1.3h6.4c0.7 0 1.3-0.6 1.3-1.3v-2.6c0-0.7-0.5-1.3-1.3-1.3h-6.4c-0.7 0-1.3 0.6-1.3 1.3V106.8zM292.5 84c0-1.9 1.5-3.5 3.4-3.5h6.4c2 0 3.5 1.6 3.5 3.5v1.9c0 2-1.5 3.5-3.5 3.5h-6.4c-1.9 0-3.4-1.5-3.4-3.5V84zM292.5 104.1c0-2 1.5-3.5 3.4-3.5h6.4c2 0 3.5 1.5 3.5 3.5v2.6c0 1.9-1.5 3.5-3.5 3.5h-6.4c-1.9 0-3.4-1.6-3.4-3.5V104.1zM294.6 85.9c0 0.7 0.5 1.3 1.3 1.3h6.4c0.7 0 1.3-0.6 1.3-1.3V84c0-0.7-0.6-1.3-1.3-1.3h-6.4c-0.7 0-1.3 0.6-1.3 1.3V85.9zM294.6 106.8c0 0.7 0.5 1.3 1.3 1.3h6.4c0.7 0 1.3-0.6 1.3-1.3v-2.6c0-0.7-0.6-1.3-1.3-1.3h-6.4c-0.7 0-1.3 0.6-1.3 1.3V106.8z"/>
    <path class="st0"
          d="M309.5 110.3l0.8-26.3c0.1-1.9 1.4-3.3 3.3-3.3h4.5c1.9 0 3.5 1.6 3.5 3.5v21.9c0 2.3-1.8 4.1-4 4.1h-1.4v-2.2h1.4c1 0 1.9-0.9 1.9-1.9v-4.7h-7.4l-0.3 8.9L309.5 110.3zM312 99.3h7.4v-7.1h-7.2L312 99.3zM312.2 90h7.1v-5.8c0-0.7-0.6-1.3-1.3-1.3h-4.5c-0.6 0-1.1 0.5-1.1 1.1L312.2 90zM323.2 110.3v-26c0-2 1.6-3.5 3.5-3.5h8.1c1.9 0 3.4 1.6 3.4 3.5v3.9c0 1.9-1.5 3.5-3.4 3.5h-4.3v-2.2h4.3c0.7 0 1.2-0.6 1.2-1.3v-3.9c0-0.7-0.6-1.3-1.2-1.3h-8.1c-0.7 0-1.3 0.6-1.3 1.3v9h12.8c-1.3 3.8-2.8 7.1-4.6 10l5.1 5.6 -1.6 1.5 -4.8-5.2c-1.4 2-3 3.7-4.8 5.2l-1.4-1.7c1.8-1.6 3.4-3.3 4.8-5.2l-5.5-6.1v12.9H323.2zM326.6 95.5l5.5 6.1c1.2-1.9 2.1-3.9 3-6.1H326.6z"/>
    <path class="st0"
          d="M344.9 86.2l12.4 3.8c3.1-1.2 5.6-2.8 7.4-4.6h-20.6l3.2-5.2 1.8 1.2 -1.1 1.7h21c-2 3.1-5.2 5.7-9 7.7l10.5 3.2 -0.6 2.1 -12.9-4c-4.5 1.8-9.7 2.9-14.9 3.3l-0.2-2.2c4.2-0.3 8.3-1 11.9-2l-9.5-3L344.9 86.2zM353.8 95.4c-0.2 0.8-0.5 1.6-0.7 2.4h13.2c1.9 0 3.4 1.5 3.4 3.5v5.2c0 2-1.6 3.5-3.4 3.5h-6.8v-2.2h6.8c0.7 0 1.2-0.6 1.2-1.3v-5.2c0-0.7-0.5-1.2-1.2-1.2h-14c-1.9 4.3-4.5 7.7-8.3 10.4l-1.2-1.8c3.1-2.2 5.4-5 7.1-8.6h-6.6v-2.3h7.5c0.4-1 0.6-1.9 0.9-3L353.8 95.4z"/>
</svg>
