<?xml version="1.0" encoding="UTF-8" standalone="no"?>
<svg width="108px" height="110px" viewBox="0 0 108 110" version="1.1" xmlns="http://www.w3.org/2000/svg" xmlns:xlink="http://www.w3.org/1999/xlink">
    <!-- Generator: Sketch 39 (31667) - http://www.bohemiancoding.com/sketch -->
    <title>Logo</title>
    <desc>Created with Sketch.</desc>
    <defs></defs>
    <g id="Page-1" stroke="none" stroke-width="1" fill="none" fill-rule="evenodd">
        <g id="Logo" fill="#fff">
            <g id="Page-1">
                <g id="Logo">
                    <path d="M107.469,55.244 L107.469,109.982 L83.93,109.982 L83.93,54.846 C84.022,38.032 70.75,24.328 54.294,24.239 C40.96,24.163 29.628,33.041 25.746,45.361 L16.883,49.822 L24.334,56.15 C25.136,71.164 30.327,96.316 73.313,109.982 L53.586,109.982 C23.976,109.819 0.112,84.88 0.274,54.652 C0.432,24.415 24.563,0.038 54.162,0.206 C83.766,0.364 107.628,25.012 107.469,55.244" id="Fill-7"></path>
                    <path d="M47.542,57.397 C47.534,60.9 44.736,63.717 41.318,63.7 C37.894,63.679 35.126,60.831 35.15,57.326 C35.163,53.831 37.961,51.009 41.382,51.031 C44.809,51.045 47.566,53.897 47.542,57.397" id="Fill-8"></path>
                </g>
            </g>
        </g>
    </g>
</svg>