<?xml version="1.0" encoding="UTF-8" standalone="no"?>
<svg width="227px" height="69px" viewBox="0 0 227 69" version="1.1" xmlns="http://www.w3.org/2000/svg" xmlns:xlink="http://www.w3.org/1999/xlink">
    <!-- Generator: Sketch 39 (31667) - http://www.bohemiancoding.com/sketch -->
    <title>Logo</title>
    <desc>Created with Sketch.</desc>
    <defs>
        <filter x="-50%" y="-50%" width="200%" height="200%" filterUnits="objectBoundingBox" id="filter-1">
            <feOffset dx="0" dy="0" in="SourceAlpha" result="shadowOffsetOuter1"></feOffset>
            <feGaussianBlur stdDeviation="0.5" in="shadowOffsetOuter1" result="shadowBlurOuter1"></feGaussianBlur>
            <feColorMatrix values="0 0 0 0 0   0 0 0 0 0   0 0 0 0 0  0 0 0 0.0995244565 0" type="matrix" in="shadowBlurOuter1" result="shadowMatrixOuter1"></feColorMatrix>
            <feMerge>
                <feMergeNode in="shadowMatrixOuter1"></feMergeNode>
                <feMergeNode in="SourceGraphic"></feMergeNode>
            </feMerge>
        </filter>
    </defs>
    <g id="Login-&amp;-Register" stroke="none" stroke-width="1" fill="none" fill-rule="evenodd">
        <g id="Login" transform="translate(-491.000000, -124.000000)">
            <g id="Logo" filter="url(#filter-1)" transform="translate(492.000000, 125.000000)">
                <g id="Group-4" transform="translate(74.641941, 3.593005)" fill="#A1BDC9">
                    <polygon id="Fill-1" points="28.3582656 35.876022 34.6303412 35.876022 34.6303412 0.362599509 28.3582656 0.362599509"></polygon>
                    <path d="M89.8088504,24.4418722 C89.8088504,30.7819578 84.4166834,35.8754177 78.7293956,35.8754177 C72.9918099,35.8754177 67.6523647,30.7819578 67.6523647,24.4418722 L67.6523647,13.7552145 L73.9256523,13.7552145 L73.9256523,24.2926156 C73.9256523,25.7882038 74.4637782,27.1895246 75.2473331,28.1841664 C76.2308673,29.2350059 77.5022503,29.8344498 78.7293956,29.8344498 C79.9516928,29.8344498 81.2248939,29.2350059 82.1623722,28.1841664 C82.993801,27.1895246 83.5331389,25.7882038 83.5331389,24.2926156 L83.5331389,13.7552145 L89.8088504,13.7552145 L89.8088504,24.4418722" id="Fill-2"></path>
                    <path d="M102.442083,28.585407 C103.468643,29.6851931 104.843046,30.2828241 106.313196,30.2828241 C107.784558,30.2828241 109.208653,29.6851931 110.234607,28.585407 C111.264803,27.4868295 111.851409,25.9930541 111.851409,24.4430808 C111.851409,22.891899 111.264803,21.4464658 110.234607,20.2983375 C109.208653,19.2009685 107.784558,18.5985033 106.313196,18.5985033 C104.843046,18.5985033 103.468643,19.2009685 102.442083,20.2983375 C101.410069,21.4464658 100.822858,22.891899 100.822858,24.4430808 C100.822858,25.9930541 101.410069,27.4868295 102.442083,28.585407 M113.372463,32.6298402 C111.359945,34.628792 108.568719,35.8754177 105.530247,35.8754177 C99.3508893,35.8754177 94.3501968,30.7825621 94.3501968,24.4430808 C94.3501968,18.1501289 99.3508893,13.0083268 105.530247,13.0083268 C108.568719,13.0083268 111.359945,14.2555567 113.372463,16.2526958 L113.372463,0.363203787 L119.15671,0.363203787 L119.15671,35.1786851 L113.372463,35.1786851 L113.372463,32.6298402" id="Fill-3"></path>
                    <path d="M139.622463,28.6851129 C138.543787,29.784899 137.21847,30.3849471 135.696204,30.3849471 C134.278169,30.3849471 132.856499,29.784899 131.879025,28.6851129 C130.747627,27.5394016 130.204047,26.0873214 130.204047,24.4920273 C130.204047,22.9432626 130.747627,21.4464658 131.879025,20.3484926 C132.856499,19.1991557 134.278169,18.5985033 135.696204,18.5985033 C137.21847,18.5985033 138.543787,19.1991557 139.622463,20.3484926 C140.651447,21.4464658 141.188966,22.891899 141.188966,24.4418722 C141.188966,26.0395835 140.651447,27.5394016 139.622463,28.6851129 M147.367718,24.4920273 C147.367718,18.1996797 142.170077,13.1050113 135.650754,13.1050113 C129.179305,13.1050113 123.984693,18.1996797 123.984693,24.4920273 C123.984693,30.8357385 129.179305,35.8754177 135.650754,35.8754177 C138.072927,35.8754177 140.310876,35.1780808 142.170077,33.9785888 L142.170077,35.274161 L147.367718,35.274161 L147.367718,24.4920273" id="Fill-4"></path>
                    <path d="M55.1051835,28.6851129 C54.0259017,29.784899 52.7011909,30.3849471 51.1801368,30.3849471 C49.7602843,30.3849471 48.3404318,29.784899 47.3575037,28.6851129 C46.2297421,27.5394016 45.6952521,26.0873214 45.6952521,24.4920273 C45.6952521,22.9432626 46.2297421,21.4464658 47.3575037,20.3484926 C48.3404318,19.1991557 49.7602843,18.5985033 51.1801368,18.5985033 C52.7011909,18.5985033 54.0259017,19.1991557 55.1051835,20.3484926 C56.1341675,21.4464658 56.6728994,22.891899 56.6728994,24.4418722 C56.6728994,26.0395835 56.1341675,27.5394016 55.1051835,28.6851129 M62.8498334,24.4920273 C62.8498334,18.1996797 57.6534036,13.1050113 51.133475,13.1050113 C44.6644502,13.1050113 39.4655964,18.1996797 39.4655964,24.4920273 C39.4655964,30.8357385 44.6644502,35.8754177 51.133475,35.8754177 C53.5556475,35.8754177 55.7960208,35.1780808 57.6534036,33.9785888 L57.6534036,35.274161 L62.8498334,35.274161 L62.8498334,24.4920273" id="Fill-5"></path>
                    <path d="M15.6977629,28.6851129 C14.6184811,29.784899 13.2937703,30.3849471 11.7727162,30.3849471 C10.3510457,30.3849471 8.93119324,29.784899 7.94826506,28.6851129 C6.82535143,27.5394016 6.28601353,26.0873214 6.28601353,24.4920273 C6.28601353,22.9432626 6.82535143,21.4464658 7.94826506,20.3484926 C8.93119324,19.1991557 10.3510457,18.5985033 11.7727162,18.5985033 C13.2937703,18.5985033 14.6184811,19.1991557 15.6977629,20.3484926 C16.7279589,21.4464658 17.2654788,22.891899 17.2654788,24.4418722 C17.2654788,26.0395835 16.7279589,27.5394016 15.6977629,28.6851129 M23.4436248,24.4920273 C23.4436248,18.1996797 18.245377,13.1050113 11.7284783,13.1050113 C5.25702954,13.1050113 0.055751783,18.1996797 0.055751783,24.4920273 C0.055751783,30.8357385 5.25702954,35.8754177 11.7284783,35.8754177 C14.1494389,35.8754177 16.3873882,35.1780808 18.245377,33.9785888 L18.245377,35.274161 L23.4436248,35.274161 L23.4436248,24.4920273" id="Fill-6"></path>
                    <path d="M2.98332639,48.5743214 L16.952784,48.5743214 L16.952784,47.2062359 C16.952784,46.7711557 16.6249393,46.4345728 16.198317,46.4345728 L2.98332639,46.4345728 L2.98332639,45.0876369 L16.198317,45.0876369 C17.3260786,45.0876369 18.2811308,46.0611289 18.2811308,47.2062359 L18.2811308,51.1727172 C18.2811308,52.341391 17.3260786,53.3142787 16.198317,53.3142787 L2.98332639,53.3142787 L2.98332639,51.9661343 L16.198317,51.9661343 C16.6249393,51.9661343 16.952784,51.6077974 16.952784,51.1727172 L16.952784,49.9460327 L2.98332639,49.9460327 L2.98332639,48.5743214" id="Fill-9"></path>
                    <polyline id="Fill-10" points="6.63931016 58.3678562 2.96514646 55.4135407 3.78021329 54.345177 7.45740697 57.298284 6.63931016 58.3678562"></polyline>
                    <path d="M13.7658424,57.3369578 C15.2832605,56.5054712 16.6249393,55.5736744 17.47879,54.462407 L18.5138339,55.2951022 C17.5412077,56.5646904 16.0607555,57.5943803 14.4081999,58.5056316 L13.7658424,57.3369578" id="Fill-11"></path>
                    <path d="M43.0561324,46.8315835 L55.7784469,46.8315835 L55.7784469,45.4846476 L43.0561324,45.4846476 L43.0561324,46.8315835 Z M40.8345451,50.9932466 L58.0018522,50.9932466 L58.0018522,52.341391 L45.9231073,52.341391 L44.961389,60.8629204 L53.5635255,60.8629204 C54.1877031,60.8629204 54.6949231,60.3498883 54.6949231,59.7172091 L54.3082966,55.7912145 L55.6336135,55.7912145 L56.016604,59.7172091 C56.016604,61.0834819 54.9312622,62.215899 53.5635255,62.215899 L43.4003391,62.215899 L44.3681173,52.341391 L40.8345451,52.341391 L40.8345451,50.9932466 L40.8345451,50.9932466 Z" id="Fill-12"></path>
                    <path d="M19.4561603,61.2865193 L19.4561603,61.2369685 C17.5375717,60.8478134 15.682613,59.8120808 14.1494389,58.6283 C12.6132349,57.448145 11.555163,56.0220487 10.9752233,54.3633054 C11.0109771,54.1590594 11.041883,53.9481664 11.0715769,53.7324391 C10.5673869,53.7112893 10.0625908,53.7004123 9.56021879,53.6961824 C9.33539366,55.6818402 8.67667423,57.2855942 7.5780005,58.5026102 C6.32964536,59.8833856 4.42560077,60.7245407 1.85495878,61.2865193 L2.16341158,62.7857332 C2.16341158,62.7857332 3.73355147,62.5065567 5.0861382,61.9439738 C6.45508688,61.3958936 7.5780005,60.6780113 8.44700112,59.7891182 C9.31539574,58.9038508 9.98320514,57.7986262 10.4377034,56.4752573 C10.783122,57.1520487 11.1903524,57.7684123 11.6581826,58.3231396 C12.1296488,58.8808883 12.6605027,59.3890861 13.2537744,59.8555888 C14.4421358,60.7698615 16.8061326,62.3119792 18.9247003,62.7857332 L19.4561603,61.2865193" id="Fill-13"></path>
                    <path d="M26.5893585,46.2170327 L25.5967344,45.3432466 C24.4653368,46.6720541 23.1042661,47.8225995 21.3535389,48.8347653 L22.0140763,50.0016262 C23.904789,48.9115086 25.3603953,47.6630701 26.5893585,46.2170327" id="Fill-14"></path>
                    <path d="M24.7016759,60.8478134 L30.1738346,60.8478134 L30.1738346,59.5963535 L24.7016759,59.5963535 L24.7016759,60.8478134 Z M24.7016759,58.2482091 L30.1738346,58.2482091 L30.1738346,56.8619952 L24.7016759,56.8619952 L24.7016759,58.2482091 Z M24.7016759,55.5138508 L30.1738346,55.5138508 L30.1738346,54.0859418 L24.7016759,54.0859418 L24.7016759,55.5138508 Z M24.7016759,52.6997279 C26.728132,52.3758348 28.521279,51.9280647 30.1738346,51.3515835 L30.1738346,52.7396102 L24.7016759,52.7396102 L24.7016759,52.6997279 L24.7016759,52.6997279 Z M36.0108038,48.5181236 L37.763349,49.9460327 L38.5802338,48.8945888 L34.180691,45.2640861 L33.3619881,46.3167385 L34.8394104,47.5464444 C33.4940956,48.338653 33.0474754,48.7133054 31.601565,49.1900808 L31.601565,44.9601343 L30.1738346,44.9601343 L30.1738346,49.7865033 C27.9146753,50.3974284 24.4477628,51.4694177 21.335965,51.728653 L21.4317126,53.0767974 C22.09225,53.0169738 22.7521814,52.9589631 23.379995,52.8810113 L23.379995,62.194145 L37.6621474,62.194145 L37.6621474,60.8478134 L31.606413,60.8478134 L31.606413,59.5963535 L37.6621474,59.5963535 L37.6621474,58.2482091 L31.606413,58.2482091 L31.606413,56.8619952 L37.6621474,56.8619952 L37.6621474,55.5138508 L31.606413,55.5138508 L31.606413,54.0859418 L37.6621474,54.0859418 L37.6621474,52.7396102 L31.606413,52.7396102 L31.606413,50.8071289 C33.1632209,50.1647813 34.6042833,49.3997653 36.0108038,48.5181236 L36.0108038,48.5181236 Z" id="Fill-15"></path>
                    <polygon id="Fill-16" points="65.9925371 54.6539631 67.316036 54.6539631 67.316036 52.4326369 65.9925371 52.4326369"></polygon>
                    <path d="M123.44172,53.6828883 L126.785009,57.3901343 C127.48433,56.25953 128.070936,55.0310327 128.595729,53.6828883 L123.44172,53.6828883 L123.44172,53.6828883 Z M121.37648,62.6388936 L121.37648,46.9053054 C121.37648,45.7154819 122.329714,44.7854979 123.479291,44.7854979 L128.363632,44.7854979 C129.52836,44.7854979 130.444628,45.7553642 130.444628,46.9053054 L130.444628,49.2831396 C130.444628,50.453022 129.52836,51.4253054 128.363632,51.4253054 L125.737845,51.4253054 L125.737845,50.0765567 L128.363632,50.0765567 C128.772075,50.0765567 129.119917,49.7218455 129.119917,49.2831396 L129.119917,46.9053054 C129.119917,46.4907706 128.772075,46.1342466 128.363632,46.1342466 L123.479291,46.1342466 C123.052063,46.1342466 122.702402,46.4907706 122.702402,46.9053054 L122.702402,52.3365567 L130.480988,52.3365567 C129.684707,54.6334177 128.772075,56.6365995 127.679461,58.3793375 L130.753687,61.7681289 L129.801665,62.6793803 L126.921358,59.5087332 C126.067507,60.6985567 125.094275,61.7481877 124.023477,62.6793803 L123.148417,61.6484819 C124.237394,60.6985567 125.190629,59.6670541 126.028723,58.5171129 L122.702402,54.8328295 L122.702402,62.6388936 L121.37648,62.6388936 L121.37648,62.6388936 Z M114.723837,50.3321664 L119.023997,50.3321664 L119.023997,46.847899 C119.023997,46.4097974 118.672518,46.0544819 118.243472,46.0544819 L115.502544,46.0544819 C115.112282,46.0544819 114.861399,46.3493696 114.842007,46.7463803 L114.723837,50.3321664 L114.723837,50.3321664 Z M114.568096,55.9416797 L119.023997,55.9416797 L119.023997,51.680915 L114.685054,51.680915 L114.568096,55.9416797 L114.568096,55.9416797 Z M113.050072,62.6189524 L113.517902,46.7276476 C113.558504,45.5958348 114.391751,44.7063375 115.502544,44.7063375 L118.243472,44.7063375 C119.391231,44.7063375 120.348102,45.6774123 120.348102,46.847899 L120.348102,60.1021343 C120.348102,61.4690113 119.237914,62.6014284 117.895023,62.6014284 L117.058746,62.6014284 L117.058746,61.2544926 L117.895023,61.2544926 C118.519201,61.2544926 119.023997,60.7384391 119.023997,60.1021343 L119.023997,57.2886156 L114.528706,57.2886156 L114.372965,62.6594391 L113.050072,62.6189524 L113.050072,62.6189524 Z" id="Fill-19"></path>
                    <path d="M139.901221,53.6043321 C139.767902,54.0998402 139.611555,54.5741984 139.457025,55.0310327 L147.431348,55.0310327 C148.561534,55.0310327 149.512344,55.9604123 149.512344,57.1520487 L149.512344,60.301546 C149.512344,61.4907653 148.561534,62.4213535 147.431348,62.4213535 L143.306322,62.4213535 L143.306322,61.0726049 L147.431348,61.0726049 C147.843427,61.0726049 148.172483,60.7384391 148.172483,60.301546 L148.172483,57.1520487 C148.172483,56.7363054 147.843427,56.3997225 147.431348,56.3997225 L138.949805,56.3997225 C137.822044,58.9950968 136.207666,61.0333268 133.910935,62.6594391 L133.17283,61.57053 C135.0593,60.2423268 136.459155,58.5382626 137.469959,56.3997225 L133.464315,56.3997225 L133.464315,55.0310327 L138.034749,55.0310327 C138.249272,54.4557599 138.426829,53.8599418 138.601357,53.2272626 L139.901221,53.6043321 L139.901221,53.6043321 Z M134.553898,48.0751877 L142.042817,50.3744658 C143.911108,49.640268 145.449736,48.6903428 146.538714,47.580284 L134.027286,47.580284 L135.950723,44.4507279 L137.062123,45.1831129 L136.420371,46.2315353 L149.14208,46.2315353 C147.93978,48.112653 146.012102,49.679546 143.658407,50.8687653 L150.038956,52.8296476 L149.650512,54.1179685 L141.812538,51.702669 C139.087973,52.793391 135.950723,53.4828722 132.762569,53.7022252 L132.667428,52.3564979 C135.233222,52.1770273 137.702056,51.761284 139.901221,51.1261877 L134.163636,49.3435674 L134.553898,48.0751877 L134.553898,48.0751877 Z" id="Fill-20"></path>
                </g>
                <g id="Group-3" fill="#31B6F2">
                    <path d="M65.1259605,33.382738 L65.1259605,66.4597112 L50.861382,66.4597112 L50.861382,33.1422353 C50.9171338,22.9819037 42.8743331,14.700877 32.9020359,14.6470963 C24.8216634,14.6011711 17.9544981,19.9659519 15.6020153,27.4106578 L10.2310582,30.1063422 L14.7463466,33.9302139 C15.2323567,43.0028449 18.3780905,58.2016471 44.4275051,66.4597112 L32.4729896,66.4597112 C14.5293994,66.3612139 0.0678717358,51.291123 0.166043354,33.0250053 C0.261790981,14.7534492 14.8851201,0.0229625668 32.8220442,0.124481283 C50.7619984,0.219957219 65.2223141,15.1142032 65.1259605,33.382738" id="Fill-7"></path>
                    <path d="M28.8103399,34.6837487 C28.8054919,36.8005348 27.1099105,38.5027861 25.0386105,38.4925134 C22.9636746,38.4798235 21.2862731,36.7588396 21.3008171,34.6408449 C21.3086951,32.528893 23.0042765,30.8236203 25.0773944,30.8369144 C27.1541483,30.8453743 28.8248838,32.5687754 28.8103399,34.6837487" id="Fill-8"></path>
                    <path d="M161.497159,51.9044652 L165.605217,56.226262 L164.651377,57.178 L160.523927,52.8562032 L161.497159,51.9044652 L161.497159,51.9044652 Z M161.733498,64.8245348 C162.160727,64.8245348 162.491602,64.4873476 162.491602,64.0540802 L162.491602,61.7759519 C162.491602,61.3378503 162.160727,60.983139 161.733498,60.983139 L153.65858,60.983139 C153.230746,60.983139 152.881085,61.3378503 152.881085,61.7759519 L152.881085,64.0540802 C152.881085,64.4873476 153.230746,64.8245348 153.65858,64.8245348 L161.733498,64.8245348 L161.733498,64.8245348 Z M153.65858,66.1726791 C152.50779,66.1726791 151.555768,65.2215455 151.555768,64.0540802 L151.555768,61.7759519 C151.555768,60.6042567 152.50779,59.631369 153.65858,59.631369 L161.733498,59.631369 C162.881258,59.631369 163.813282,60.6042567 163.813282,61.7759519 L163.813282,64.0540802 C163.813282,65.2215455 162.881258,66.1726791 161.733498,66.1726791 L153.65858,66.1726791 L153.65858,66.1726791 Z M154.647568,52.7782513 C153.327705,54.5796043 151.829679,55.8709465 150.390435,56.7791765 L149.689295,55.650385 C151.010976,54.7989572 152.373865,53.6302834 153.580406,51.9848342 L154.647568,52.7782513 L154.647568,52.7782513 Z M164.570173,52.7401818 L164.570173,51.6289144 C164.570173,51.1932299 164.222937,50.8542299 163.79389,50.8542299 L151.57516,50.8542299 C151.166112,50.8542299 150.817057,51.1932299 150.817057,51.6289144 L150.817057,52.7401818 L149.490528,52.7401818 L149.490528,51.6289144 C149.490528,50.4590321 150.409827,49.509107 151.57516,49.509107 L156.983689,49.509107 L156.983689,48.159754 L158.310824,48.159754 L158.310824,49.509107 L163.79389,49.509107 C164.94468,49.509107 165.894884,50.4590321 165.894884,51.6289144 L165.894884,52.7401818 L164.570173,52.7401818 L164.570173,52.7401818 Z M158.753808,54.2641711 C158.602309,54.440016 158.444143,54.6212995 158.264768,54.779016 L166.49664,60.7837273 L165.720357,61.8708235 L157.332744,55.7519037 C154.804521,58.2246096 151.943001,60.229 149.358421,61.6351551 L148.755453,60.4465401 C151.730295,58.8216364 155.058434,56.3622246 157.780576,53.351107 L158.753808,54.2641711 L158.753808,54.2641711 Z" id="Fill-17"></path>
                    <path d="M178.720218,64.0740214 C178.720218,64.5109144 179.051093,64.8474973 179.478321,64.8474973 L183.370644,64.8474973 C183.796055,64.8474973 184.130565,64.5109144 184.130565,64.0740214 L184.130565,62.4883957 C184.130565,62.0684225 183.796055,61.7167326 183.370644,61.7167326 L179.478321,61.7167326 C179.051093,61.7167326 178.720218,62.0684225 178.720218,62.4883957 L178.720218,64.0740214 L178.720218,64.0740214 Z M178.720218,51.4699893 C178.720218,51.8851283 179.051093,52.2434652 179.478321,52.2434652 L183.370644,52.2434652 C183.796055,52.2434652 184.130565,51.8851283 184.130565,51.4699893 L184.130565,50.3399893 C184.130565,49.9061176 183.796055,49.5659091 183.370644,49.5659091 L179.478321,49.5659091 C179.051093,49.5659091 178.720218,49.9061176 178.720218,50.3399893 L178.720218,51.4699893 L178.720218,51.4699893 Z M177.394296,62.4883957 C177.394296,61.2979679 178.330562,60.3667754 179.478321,60.3667754 L183.370644,60.3667754 C184.559006,60.3667754 185.471638,61.2979679 185.471638,62.4883957 L185.471638,64.0740214 C185.471638,65.2408824 184.559006,66.2125615 183.370644,66.2125615 L179.478321,66.2125615 C178.330562,66.2125615 177.394296,65.2408824 177.394296,64.0740214 L177.394296,62.4883957 L177.394296,62.4883957 Z M177.394296,50.3399893 C177.394296,49.1707112 178.330562,48.2002406 179.478321,48.2002406 L183.370644,48.2002406 C184.559006,48.2002406 185.471638,49.1707112 185.471638,50.3399893 L185.471638,51.4699893 C185.471638,52.6586043 184.559006,53.5904011 183.370644,53.5904011 L179.478321,53.5904011 C178.330562,53.5904011 177.394296,52.6586043 177.394296,51.4699893 L177.394296,50.3399893 L177.394296,50.3399893 Z M169.847807,64.0740214 C169.847807,64.5109144 170.199892,64.8474973 170.625302,64.8474973 L174.515807,64.8474973 C174.944247,64.8474973 175.275728,64.5109144 175.275728,64.0740214 L175.275728,62.4883957 C175.275728,62.0684225 174.944247,61.7167326 174.515807,61.7167326 L170.625302,61.7167326 C170.199892,61.7167326 169.847807,62.0684225 169.847807,62.4883957 L169.847807,64.0740214 L169.847807,64.0740214 Z M169.847807,51.4699893 C169.847807,51.8851283 170.199892,52.2434652 170.625302,52.2434652 L174.515807,52.2434652 C174.944247,52.2434652 175.275728,51.8851283 175.275728,51.4699893 L175.275728,50.3399893 C175.275728,49.9061176 174.944247,49.5659091 174.515807,49.5659091 L170.625302,49.5659091 C170.199892,49.5659091 169.847807,49.9061176 169.847807,50.3399893 L169.847807,51.4699893 L169.847807,51.4699893 Z M168.524308,62.4883957 C168.524308,61.2979679 169.47936,60.3667754 170.625302,60.3667754 L174.515807,60.3667754 C175.645992,60.3667754 176.599833,61.2979679 176.599833,62.4883957 L176.599833,64.0740214 C176.599833,65.2408824 175.645992,66.2125615 174.515807,66.2125615 L170.625302,66.2125615 C169.47936,66.2125615 168.524308,65.2408824 168.524308,64.0740214 L168.524308,62.4883957 L168.524308,62.4883957 Z M168.524308,50.3399893 C168.524308,49.1707112 169.47936,48.2002406 170.625302,48.2002406 L174.515807,48.2002406 C175.645992,48.2002406 176.599833,49.1707112 176.599833,50.3399893 L176.599833,51.4699893 C176.599833,52.6586043 175.645992,53.5904011 174.515807,53.5904011 L170.625302,53.5904011 C169.47936,53.5904011 168.524308,52.6586043 168.524308,51.4699893 L168.524308,50.3399893 L168.524308,50.3399893 Z M178.174215,54.4617701 C178.019079,54.7784118 177.883942,55.0575882 177.729412,55.333139 L183.505176,55.333139 C183.719699,55.333139 183.913618,55.2733155 184.053604,55.1155989 C184.208739,54.9578824 184.285095,54.7784118 184.267521,54.5796043 L184.267521,54.1451283 L185.587384,54.1451283 L185.587384,54.520385 C185.608594,55.1155989 185.413462,55.6322567 184.986234,56.0673369 C184.577186,56.4637433 184.091175,56.6830963 183.505176,56.6830963 L180.428526,56.6830963 L185.761911,59.357631 L185.198333,60.5444332 L177.473075,56.6830963 L176.812538,56.6830963 C175.259972,58.5454813 172.943243,59.5951123 168.602482,60.1879091 L168.427954,58.8409733 C171.55975,58.4046845 173.523789,57.7520642 174.886071,56.6830963 L168.408563,56.6830963 L168.408563,55.333139 L176.151394,55.333139 C176.462877,54.8986631 176.73497,54.4237005 176.987671,53.8871016 L178.174215,54.4617701 L178.174215,54.4617701 Z" id="Fill-18"></path>
                </g>
            </g>
        </g>
    </g>
</svg>